<?xml version="1.0"?>
<svg xmlns="http://www.w3.org/2000/svg" id="Layer_1" enable-background="new 0 0 512 512" height="512px" viewBox="0 0 512 512" width="512px"><g><g><path d="m502 246h-36.244c-.514-10.894-1.859-21.728-4.027-32.32-2.76-13.49-6.88-26.75-12.239-39.42-5.261-12.45-11.771-24.45-19.36-35.67-7.51-11.12-16.14-21.58-25.64-31.08s-19.96-18.13-31.08-25.64c-11.221-7.59-23.221-14.1-35.67-19.36-12.671-5.36-25.931-9.48-39.421-12.24-10.595-2.167-21.429-3.497-32.319-4.005v-36.265c0-5.523-4.478-10-10-10-5.523 0-10 4.477-10 10v36.265c-10.89.508-21.725 1.838-32.32 4.005-13.49 2.76-26.75 6.88-39.42 12.24-12.45 5.26-24.45 11.77-35.67 19.36-11.12 7.51-21.58 16.14-31.08 25.64s-18.13 19.96-25.64 31.08c-7.59 11.22-14.1 23.22-19.36 35.67-5.36 12.67-9.48 25.93-12.24 39.42-2.168 10.593-3.512 21.426-4.026 32.32h-36.244c-5.523 0-10 4.477-10 10 0 5.522 4.477 10 10 10h36.244c.514 10.894 1.859 21.727 4.026 32.319 2.76 13.49 6.88 26.75 12.24 39.421 5.26 12.449 11.77 24.449 19.36 35.67 7.51 11.12 16.14 21.58 25.64 31.08s19.96 18.13 31.08 25.64c11.22 7.59 23.22 14.1 35.67 19.36 12.67 5.359 25.93 9.479 39.42 12.239 10.593 2.168 21.426 3.513 32.32 4.027v36.244c0 5.522 4.477 10 10 10 5.522 0 10-4.478 10-10v-36.242c37.411-1.756 73.457-13.376 104.81-33.899 4.61-3.02 5.91-9.229 2.9-13.84-1.86-2.83-4.99-4.529-8.38-4.529-1.94 0-3.83.569-5.471 1.64-30.88 20.189-66.799 30.87-103.859 30.87-50.74-.01-98.45-19.771-134.35-55.65-35.88-35.9-55.64-83.61-55.65-134.35.01-50.74 19.77-98.45 55.65-134.35 35.9-35.88 83.61-55.64 134.35-55.65 50.74.01 98.45 19.77 134.35 55.65 35.88 35.9 55.641 83.61 55.65 134.35 0 34.67-9.431 68.6-27.26 98.12-1.381 2.279-1.79 4.97-1.15 7.569.64 2.591 2.25 4.78 4.54 6.16 1.56.94 3.34 1.44 5.16 1.44 3.54 0 6.74-1.8 8.569-4.83 9.681-16.021 17.16-33.25 22.24-51.23 4.348-15.353 6.907-31.201 7.66-47.229h36.241c5.522 0 10-4.478 10-10 0-5.523-4.478-10-10-10z" data-original="#000000" class="active-path" data-old_color="#000000" fill="#697F90"/><circle cx="399.928" cy="394.87" r="10" data-original="#000000" class="active-path" data-old_color="#000000" fill="#697F90"/><path d="m256 96c-88.224 0-160 71.776-160 160 0 88.225 71.776 160 160 160 88.225 0 160-71.775 160-160 0-88.224-71.775-160-160-160zm0 300c-77.196 0-140-62.804-140-140s62.804-140 140-140 140 62.804 140 140-62.804 140-140 140z" data-original="#000000" class="active-path" data-old_color="#000000" fill="#697F90"/><path d="m256 186c-38.598 0-70 31.402-70 70s31.402 70 70 70 70-31.402 70-70-31.402-70-70-70zm0 120c-27.57 0-50-22.43-50-50s22.43-50 50-50 50 22.43 50 50-22.43 50-50 50z" data-original="#000000" class="active-path" data-old_color="#000000" fill="#697F90"/></g></g> </svg>
